<?xml version="1.0" standalone="no"?>
<!DOCTYPE svg PUBLIC "-//W3C//DTD SVG 20010904//EN"
 "http://www.w3.org/TR/2001/REC-SVG-20010904/DTD/svg10.dtd">
<svg version="1.0" xmlns="http://www.w3.org/2000/svg"
 width="1200.000000pt" height="1200.000000pt" viewBox="0 0 1200.000000 1200.000000"
 preserveAspectRatio="xMidYMid meet">

<g transform="translate(0.000000,1200.000000) scale(0.100000,-0.100000)"
fill="#000000" stroke="none">
<path d="M8059 11545 c10 -27 42 -106 71 -175 74 -177 147 -399 175 -536 81
-389 48 -791 -101 -1231 -237 -703 -647 -1224 -1244 -1583 -646 -389 -1542
-613 -2720 -680 -102 -6 -385 -15 -630 -20 -564 -12 -741 -30 -1055 -110 -577
-147 -1006 -436 -1233 -834 -170 -297 -203 -646 -90 -966 98 -276 299 -520
578 -700 l85 -55 0 -160 c1 -139 4 -174 27 -265 62 -247 183 -449 382 -637 86
-81 290 -233 313 -233 5 0 5 -34 1 -77 -20 -194 30 -432 130 -627 108 -210
276 -391 509 -546 l88 -59 -3 -128 c-8 -347 124 -652 398 -917 127 -122 277
-226 453 -312 119 -58 368 -149 428 -156 21 -2 67 34 267 216 133 121 242 220
242 222 0 1 -55 103 -123 225 -68 123 -165 301 -217 394 -51 94 -246 446 -434
784 -188 337 -342 617 -344 621 -7 19 247 153 408 215 354 135 780 205 1259
205 855 0 1666 86 2284 240 87 22 161 40 163 40 3 0 2164 1959 2233 2025 28
27 70 189 103 400 19 122 22 181 23 465 0 346 -5 408 -55 705 -114 669 -410
1426 -809 2065 -77 124 -1494 2128 -1522 2151 -10 9 -16 18 -14 21 2 2 -7 17
-21 33 l-24 30 19 -50z m141 -191 c67 -104 98 -160 92 -166 -17 -17 -28 -2
-98 130 -37 70 -75 142 -86 160 -11 17 -17 32 -15 32 3 0 51 -70 107 -156z
m-1752 -5392 c10 -7 3 -34 -28 -123 -58 -161 -144 -435 -184 -588 l-34 -131
46 24 c26 13 75 45 109 71 205 154 402 488 392 663 -3 44 -3 45 41 62 80 31
98 32 120 10 24 -24 26 -84 6 -182 -50 -232 -275 -512 -523 -650 l-60 -33 81
0 c102 -1 145 -16 190 -65 61 -68 58 -182 -10 -367 -67 -182 -77 -220 -69
-268 14 -96 103 -146 220 -126 83 15 85 14 85 -12 0 -50 -83 -88 -195 -89 -84
-1 -151 28 -207 90 -94 104 -95 174 -9 404 60 159 70 217 47 271 -22 54 -76
76 -182 77 -49 0 -86 -5 -96 -12 -27 -21 -107 -515 -93 -577 6 -27 3 -30 -42
-52 -51 -25 -149 -36 -172 -21 -11 8 -2 57 51 280 l64 270 -87 -81 c-213 -200
-408 -251 -538 -141 -32 27 -81 111 -81 139 0 8 -2 15 -5 15 -3 0 -37 -31 -75
-69 -85 -85 -145 -122 -199 -123 -51 -1 -87 23 -109 70 -9 20 -18 39 -19 41
-1 2 -20 -15 -42 -37 -22 -23 -54 -48 -72 -57 -43 -23 -125 -30 -177 -16 -54
15 -117 71 -133 119 -26 77 -7 244 47 414 29 91 69 143 122 158 52 14 92 13
92 -4 0 -7 -18 -62 -41 -122 -80 -217 -105 -354 -74 -413 17 -34 33 -41 86
-41 52 0 89 20 134 72 29 34 35 49 32 73 -13 90 44 324 99 408 24 37 27 38 77
35 l52 -3 3 -63 c4 -80 -28 -212 -73 -307 -31 -64 -33 -74 -25 -122 22 -131
68 -127 208 21 67 72 83 95 97 143 28 99 84 193 160 269 88 89 147 119 233
119 59 0 66 -2 93 -33 22 -25 29 -42 29 -75 0 -102 -85 -207 -268 -331 -85
-58 -102 -74 -102 -96 0 -39 33 -91 71 -112 95 -51 217 2 389 168 70 67 90 93
92 117 2 21 10 35 25 41 17 8 26 31 48 125 64 281 194 719 219 740 37 30 136
50 164 33z m898 -6 c3 -8 -15 -70 -39 -138 -68 -188 -207 -650 -207 -691 0 -4
15 0 33 9 246 127 506 498 511 729 l1 59 45 17 c114 41 130 33 130 -70 0 -118
-42 -238 -135 -383 -67 -104 -248 -279 -362 -348 l-90 -56 81 0 c67 0 91 -5
132 -24 72 -36 94 -75 94 -168 0 -89 -17 -157 -73 -300 -36 -91 -42 -118 -42
-179 0 -68 2 -74 34 -107 45 -47 101 -60 187 -45 72 12 91 5 79 -30 -9 -29
-68 -58 -148 -71 -55 -10 -75 -9 -121 4 -70 21 -132 68 -171 131 -27 44 -30
56 -29 129 0 73 5 94 53 216 82 212 79 307 -14 346 -37 15 -191 20 -213 6 -21
-14 -92 -435 -92 -547 l0 -66 -54 -25 c-89 -41 -186 -32 -171 15 3 10 36 147
74 305 62 262 67 291 55 315 -21 39 -17 59 14 75 24 13 30 26 50 118 39 174
111 435 163 594 l49 152 48 20 c55 25 120 29 128 8z m-3137 -532 c17 -14 31
-32 31 -39 0 -7 -16 -36 -35 -65 -19 -29 -35 -62 -35 -74 0 -34 43 -152 87
-241 64 -127 68 -149 36 -215 -33 -67 -112 -148 -174 -178 -89 -43 -158 -23
-226 66 -41 53 -42 90 -6 133 42 50 113 73 113 36 0 -7 13 -40 30 -74 27 -59
31 -63 63 -63 54 0 82 29 81 82 -1 39 -111 358 -124 358 -3 0 -39 -45 -79
-101 -80 -108 -103 -128 -127 -108 -8 6 -14 16 -14 22 0 5 34 61 75 123 70
106 74 114 64 143 -14 40 -7 66 32 119 33 46 119 102 156 102 12 0 35 -12 52
-26z"/>
<path d="M5572 5246 c-21 -20 -53 -62 -70 -93 -30 -57 -59 -149 -50 -158 3 -3
27 11 54 31 116 87 168 157 162 217 -5 48 -45 49 -96 3z"/>
</g>
</svg>
